<?xml version="1.0" ?>

<!-- Uploaded to: SVG Repo, www.svgrepo.com, Generator: SVG Repo Mixer Tools -->
<svg width="800px" height="800px" viewBox="0 0 32 32" id="svg5" version="1.1" xmlns="http://www.w3.org/2000/svg"
    xmlns="http://www.w3.org/2000/svg" fill="currentColor">

    <defs id="defs2" />

    <g id="layer1" transform="translate(-396,-388)">

        <path
            d="m 419,408.01367 a 1,1 0 0 0 -0.0508,0.006 1.0001,1.0001 0 0 0 -0.11914,0.0137 1,1 0 0 0 -0.10547,0.0254 1.0001,1.0001 0 0 0 -0.10352,0.0352 1,1 0 0 0 -0.10547,0.0508 1.0001,1.0001 0 0 0 -0.0898,0.0566 1,1 0 0 0 -0.0859,0.0684 1.0001,1.0001 0 0 0 -0.0469,0.0371 l -2,2 a 1,1 0 0 0 0,1.41406 1,1 0 0 0 1.41406,0 L 418,411.42773 v 3.58594 a 1,1 0 0 0 1,1 1,1 0 0 0 1,-1 v -3.58594 l 0.29297,0.29297 a 1,1 0 0 0 1.41406,0 1,1 0 0 0 0,-1.41406 l -1.9707,-1.9707 a 1,1 0 0 0 -0.40625,-0.26563 1.0001,1.0001 0 0 0 -0.002,0 1.0001,1.0001 0 0 0 -0.004,-0.002 1,1 0 0 0 -0.19922,-0.0449 1.0001,1.0001 0 0 0 -0.0273,-0.004 1,1 0 0 0 -0.0977,-0.006 z"
            id="path453591"
            style="fill-rule:evenodd;stroke-linecap:round;stroke-linejoin:round;stroke-miterlimit:4.1;-inkscape-stroke:none" />

        <path
            d="m 408,389.01367 c -2.63824,0 -5.03895,0.59351 -6.85742,1.62305 C 399.32411,391.66626 398,393.22484 398,395.10938 v 17.80468 c 0,1.88494 1.32411,3.44611 3.14258,4.47656 1.81847,1.03047 4.219,1.62305 6.85742,1.62305 2.54606,0 4.86486,-0.55269 6.65625,-1.51953 1.19527,0.95008 2.70502,1.51953 4.34375,1.51953 3.85414,0 7,-3.14585 7,-7 0,-3.85413 -3.14586,-7 -7,-7 -0.33979,0 -0.67289,0.025 -1,0.0723 v -9.97656 c 0,-1.88454 -1.32411,-3.44312 -3.14258,-4.47266 -1.81847,-1.02954 -4.21918,-1.62305 -6.85742,-1.62305 z m 0,2 c 2.33231,0 4.43222,0.54865 5.87109,1.36328 1.43889,0.81464 2.12891,1.80226 2.12891,2.73243 0,0.93096 -0.69003,1.92118 -2.12891,2.73632 -1.43886,0.81515 -3.5389,1.36328 -5.87109,1.36328 -2.33219,0 -4.43223,-0.54813 -5.87109,-1.36328 C 400.69003,397.03056 400,396.04034 400,395.10938 c 0,-0.93017 0.69002,-1.91779 2.12891,-2.73243 1.43887,-0.81463 3.53878,-1.36328 5.87109,-1.36328 z m -8,7.79492 c 0.35022,0.28389 0.73259,0.54508 1.14258,0.77735 1.81848,1.0302 4.21906,1.62304 6.85742,1.62304 2.63836,0 5.03894,-0.59284 6.85742,-1.62304 0.40999,-0.23227 0.79236,-0.49346 1.14258,-0.77735 v 2.23633 c 0,0.93097 -0.69003,1.91923 -2.12891,2.73438 -1.43886,0.81514 -3.5389,1.36523 -5.87109,1.36523 -2.33219,0 -4.43223,-0.55009 -5.87109,-1.36523 C 400.69003,402.96415 400,401.97589 400,401.04492 Z m 0,5.9336 c 0.35022,0.28374 0.73259,0.54508 1.14258,0.77734 1.81848,1.0302 4.21906,1.625 6.85742,1.625 2.63836,0 5.03894,-0.5948 6.85742,-1.625 0.40999,-0.23226 0.79236,-0.4936 1.14258,-0.77734 v 0.94922 c -1.90408,0.90926 -3.33657,2.65526 -3.82031,4.75586 -1.21133,0.39534 -2.64498,0.63086 -4.17969,0.63085 -2.33226,0 -4.43224,-0.54836 -5.87109,-1.36328 C 400.69004,408.89992 400,407.91143 400,406.98047 Z m 19,2.27148 c 2.77327,0 5,2.22674 5,5 0,2.77327 -2.22673,5 -5,5 -2.77327,0 -5,-2.22673 -5,-5 0,-0.21391 0.0133,-0.42422 0.0391,-0.63086 a 0.99999499,0.99999499 0 0 0 0.0176,-0.13281 c 0.27125,-1.78885 1.48397,-3.25773 3.11914,-3.89453 a 0.99999499,0.99999499 0 0 0 0.28906,-0.10352 c 0.48298,-0.15418 0.99924,-0.23828 1.53516,-0.23828 z m -19,3.66406 c 0.35022,0.28373 0.73259,0.54514 1.14258,0.77735 1.81849,1.02993 4.21913,1.62305 6.85742,1.62304 1.43128,0 2.78941,-0.17768 4.02539,-0.50195 0.10036,1.24866 0.52985,2.40692 1.20313,3.38672 -1.39006,0.63466 -3.21756,1.05078 -5.22852,1.05078 -2.33213,0 -4.43222,-0.54791 -5.87109,-1.36328 C 400.69002,414.83503 400,413.84503 400,412.91406 Z"
            id="path453551"
            style="fill-rule:evenodd;stroke-linecap:round;stroke-linejoin:round;stroke-miterlimit:4.1;-inkscape-stroke:none" />

    </g>

</svg>