<?xml version="1.0" ?>

<!-- Uploaded to: SVG Repo, www.svgrepo.com, Generator: SVG Repo Mixer Tools -->
<svg width="40px" height="40px" viewBox="0 0 32 32" id="svg5" version="1.1" xmlns="http://www.w3.org/2000/svg" xmlnsSvg="http://www.w3.org/2000/svg">

<defs id="defs2"/>

<g id="layer1" transform="translate(-396,-436)">

<path d="m 419,456.01367 a 1,1 0 0 0 -1,1 v 3.58594 l -0.29297,-0.29297 A 1,1 0 0 0 417,460.01367 a 1,1 0 0 0 -0.70703,0.29297 1,1 0 0 0 0,1.41406 l 2,2 a 1.0001,1.0001 0 0 0 0.0469,0.0371 1,1 0 0 0 0.0859,0.0684 1.0001,1.0001 0 0 0 0.0898,0.0566 1,1 0 0 0 0.10547,0.0508 1.0001,1.0001 0 0 0 0.10352,0.0352 1,1 0 0 0 0.10547,0.0254 1.0001,1.0001 0 0 0 0.11914,0.0137 1,1 0 0 0 0.0508,0.006 1,1 0 0 0 0.0508,-0.006 1.0001,1.0001 0 0 0 0.11914,-0.0137 1,1 0 0 0 0.10547,-0.0254 1.0001,1.0001 0 0 0 0.10352,-0.0352 1,1 0 0 0 0.10547,-0.0508 1.0001,1.0001 0 0 0 0.0898,-0.0566 1,1 0 0 0 0.0859,-0.0684 1.0001,1.0001 0 0 0 0.0469,-0.0371 l 2,-2 a 1,1 0 0 0 0,-1.41406 1,1 0 0 0 -1.41406,0 L 420,460.59961 v -3.58594 a 1,1 0 0 0 -1,-1 z" id="path453679" style="color:#fff;fill:#fff;fill-rule:evenodd;stroke-linecap:round;stroke-linejoin:round;stroke-miterlimit:4.1;-inkscape-stroke:none"/>

<path d="m 408,437 c -2.63824,0 -5.03895,0.59351 -6.85742,1.62305 C 399.32411,439.65259 398,441.21117 398,443.0957 v 17.80469 c 0,1.88494 1.32411,3.4461 3.14258,4.47656 1.81847,1.03047 4.219,1.62305 6.85742,1.62305 2.54606,0 4.86486,-0.55269 6.65625,-1.51953 C 415.85152,466.43054 417.36127,467 419,467 c 3.85414,0 7,-3.14585 7,-7 0,-3.85414 -3.14586,-7 -7,-7 -0.33979,0 -0.67289,0.025 -1,0.0723 v -9.97657 c 0,-1.88453 -1.32411,-3.44311 -3.14258,-4.47265 C 413.03895,437.59351 410.63824,437 408,437 Z m 0,2 c 2.33231,0 4.43222,0.54865 5.87109,1.36328 1.43889,0.81464 2.12891,1.80225 2.12891,2.73242 0,0.93097 -0.69003,1.92119 -2.12891,2.73633 -1.43886,0.81515 -3.5389,1.36328 -5.87109,1.36328 -2.33219,0 -4.43223,-0.54813 -5.87109,-1.36328 C 400.69003,445.01689 400,444.02667 400,443.0957 c 0,-0.93017 0.69002,-1.91778 2.12891,-2.73242 C 403.56778,439.54865 405.66769,439 408,439 Z m -8,7.79492 c 0.35022,0.28389 0.73259,0.54508 1.14258,0.77735 1.81848,1.03019 4.21906,1.62304 6.85742,1.62304 2.63836,0 5.03894,-0.59285 6.85742,-1.62304 0.40999,-0.23227 0.79236,-0.49346 1.14258,-0.77735 v 2.23633 c 0,0.93097 -0.69003,1.91923 -2.12891,2.73437 -1.43886,0.81514 -3.5389,1.36524 -5.87109,1.36524 -2.33219,0 -4.43223,-0.5501 -5.87109,-1.36524 C 400.69003,450.95048 400,449.96222 400,449.03125 Z m 0,5.9336 c 0.35022,0.28373 0.73259,0.54507 1.14258,0.77734 1.81848,1.0302 4.21906,1.625 6.85742,1.625 2.63836,0 5.03894,-0.5948 6.85742,-1.625 0.40999,-0.23227 0.79236,-0.49361 1.14258,-0.77734 v 0.94921 c -1.90408,0.90926 -3.33657,2.65527 -3.82031,4.75586 -1.21133,0.39535 -2.64498,0.63087 -4.17969,0.63086 -2.33226,0 -4.43224,-0.54836 -5.87109,-1.36328 C 400.69004,456.88625 400,455.89776 400,454.9668 Z M 419,455 c 2.77327,0 5,2.22674 5,5 0,2.77327 -2.22673,5 -5,5 -2.77327,0 -5,-2.22673 -5,-5 0,-0.21391 0.0133,-0.42422 0.0391,-0.63086 a 0.99999499,0.99999499 0 0 0 0.0176,-0.13281 c 0.27125,-1.78885 1.48397,-3.25773 3.11914,-3.89453 a 0.99999499,0.99999499 0 0 0 0.28906,-0.10352 C 417.94782,455.0841 418.46408,455 419,455 Z m -19,3.66406 c 0.35022,0.28372 0.73259,0.54514 1.14258,0.77735 1.81849,1.02993 4.21913,1.62305 6.85742,1.62304 1.43128,0 2.78941,-0.17768 4.02539,-0.50195 0.10036,1.24866 0.52985,2.40692 1.20313,3.38672 C 411.83846,464.58387 410.01096,465 408,465 c -2.33213,0 -4.43222,-0.54791 -5.87109,-1.36328 C 400.69002,462.82136 400,461.83136 400,460.90039 Z" id="path453601" style="color:#fff;fill:#fff;fill-rule:evenodd;stroke-linecap:round;stroke-linejoin:round;stroke-miterlimit:4.1;-inkscape-stroke:none"/>

</g>

</svg>