<!doctype html>
<svg viewBox="70.3435 62.343 425.453 400.9335" width="40rem" height="40rem">
    <g id="OBJECTS" transform="matrix(1, 0, 0, 1, 33.06938983603402, 28.06430476999736)">
        <g>
            <g>
                <path style="fill:#DFF1EA;" d="M265.636,50.364c-21.123-0.199-149.054-2.178-152.815,33.473
				c-3.604,34.146,45.967,21.645,46.45,36.796c0.514,15.916-8.939,20.522-35.325,19.513c-11.435-0.438-47.523,3.606-48.099,26.386
				c-0.576,22.653,39.723,19.793,37.729,38.589c-1.156,21.363-31.763,26.01-43.819,31.658c-13.1,6.852-37.209,18.149-31.67,42.399
				c7.291,28.121,53.587,23.064,71.025,26.528c11.646,1.891,48.679,5.156,43.412,30.076c-2.768,14.976-33.167,15.85-27.355,35.065
				c5.881,17.964,58.892,21.514,69.631,22.096c44.576,2.411,142.461,6.354,186.058-12.035c16.028-6.693,30.177-14.753,28.536-38.788
				c-0.796-21.467-12.375-24.613,7.126-41.202c12.327-10.677,35.928-9.818,34.532-40.982c-0.754-16.813-43.757-23.794-42.804-41.387
				c1.496-27.646,54.286-4.171,54.479-53.072c0.118-30.523-95.92-13.447-94.94-43.64c-1.295-12.253,19.845-17.454,18.936-31.015
				C387.22,69.105,362.345,53.035,265.636,50.364z"></path>
            </g>
            <path style="fill:#EAF9F3;" d="M181.833,271.78c-0.104,0.064-0.229,0.102-0.384,0.102c-24.51,0-49.02,0-73.529,0
			c-0.326,0-0.653-0.228-0.728-0.553c-0.804-3.496,3.24-6.244,5.971-4.902c0.385-1.777,2.145-3.003,3.984-2.775
			c-1.01-3.192,0.387-6.425,3.74-7.977c3.084-1.433,5.956-0.254,7.785,2.08c1.053-5.414,5.723-10.093,11.409-10.485
			c3.091-0.209,6.363,0.661,8.768,2.688c2.4,2.015,3.182,4.222,3.782,6.926c1.796-2.579,4.703-3.798,8.046-2.761
			c3.301,1.024,3.718,4.395,3.565,7.424c2.66-2.208,5.858-3.28,9.329-1.192c2.882,1.733,3.505,4.52,3.625,7.547
			c2.368-1.41,4.819-0.012,5.009,3.228C182.225,271.46,182.061,271.676,181.833,271.78z"></path>
            <path style="fill:#DFF1EA;" d="M386.944,119.396c0,14.095,38.239,16.694,40.225,0C429.155,102.699,386.944,98.234,386.944,119.396
			z"></path>
            <path style="fill:#DFF1EA;"
                d="M78.208,336.191c0,14.096,47.321,16.821,49.036,0C129.36,315.453,78.208,311.508,78.208,336.191z">
            </path>
            <path style="fill:#DFF1EA;" d="M354.009,415.703c0,16.717,56.121,19.949,58.155,0C414.672,391.109,354.009,386.43,354.009,415.703
			z"></path>
            <path style="fill:#DFF1EA;"
                d="M74.208,120.39c0,9.203,26.085,10.983,27.03,0C102.405,106.852,74.208,104.276,74.208,120.39z"></path>
            <path style="fill:#FFFFFF;" d="M223.681,284.286c0.778-3.914-5.011-7.511-9.472-6.068c0.728-2.684-0.102-5.118-4.056-6.319
			c-1.648-0.5-3.628-0.494-5.367-0.024c3.119-6.218,0.217-13.298-9.423-14.761c-10.48-1.593-22.112,3.551-24.192,11.828
			c-8.523-8.375-26.583,1.659-21.252,11.298c-3.293-0.524-6.686,1.341-6.887,4.111c-3.334-1.133-5.961,2.266-3.904,5.193
			c0.149,0.214,0.457,0.348,0.764,0.348c29.652,0,59.306,0,88.957,0c0.227,0,0.405-0.058,0.541-0.145
			c0.141-0.081,0.254-0.202,0.312-0.37C230.715,286.492,226.984,283.755,223.681,284.286z"></path>
            <path style="fill:#FFFFFF;" d="M224.601,350.641c0.346-1.731-2.216-3.321-4.188-2.684c0.323-1.188-0.045-2.265-1.793-2.795
			c-0.729-0.22-1.603-0.218-2.373-0.011c1.379-2.749,0.095-5.88-4.168-6.526c-4.635-0.705-9.777,1.571-10.698,5.23
			c-3.77-3.705-11.754,0.733-9.396,4.995c-1.457-0.232-2.959,0.593-3.047,1.818c-1.475-0.5-2.636,1.003-1.725,2.296
			c0.065,0.095,0.201,0.154,0.337,0.154c13.112,0,26.225,0,39.337,0c0.099,0,0.18-0.024,0.24-0.063
			c0.062-0.037,0.111-0.09,0.136-0.165C227.711,351.616,226.063,350.404,224.601,350.641z"></path>
            <path style="fill:#FFFFFF;" d="M383.402,190.248c0.078,0.047,0.171,0.075,0.286,0.075c18.231,0,36.464,0,54.695,0
			c0.242,0,0.485-0.17,0.541-0.412c0.599-2.6-2.41-4.644-4.441-3.646c-0.286-1.322-1.596-2.234-2.964-2.064
			c0.751-2.374-0.288-4.778-2.782-5.934c-2.294-1.065-4.431-0.189-5.791,1.547c-0.783-4.027-4.257-7.508-8.486-7.799
			c-2.3-0.157-4.733,0.491-6.522,1.998c-1.785,1.499-2.367,3.142-2.814,5.152c-1.336-1.918-3.498-2.825-5.985-2.053
			c-2.455,0.762-2.766,3.27-2.652,5.522c-1.979-1.642-4.357-2.44-6.939-0.887c-2.144,1.289-2.607,3.362-2.696,5.613
			c-1.762-1.048-3.585-0.008-3.726,2.401C383.111,190.01,383.233,190.17,383.402,190.248z"></path>
            <path style="fill:#FFFFFF;" d="M240.831,92.03c0.055,0.032,0.115,0.052,0.193,0.052c12.322,0,24.642,0,36.963,0
			c0.164,0,0.328-0.115,0.365-0.279c0.405-1.756-1.628-3.137-3.002-2.463c-0.192-0.893-1.076-1.51-2.003-1.396
			c0.509-1.604-0.192-3.229-1.879-4.009c-1.55-0.719-2.992-0.127-3.913,1.046c-0.529-2.721-2.878-5.074-5.736-5.27
			c-1.555-0.106-3.198,0.332-4.407,1.35c-1.206,1.014-1.598,2.123-1.901,3.482c-0.902-1.296-2.364-1.909-4.045-1.388
			c-1.661,0.514-1.87,2.209-1.792,3.732c-1.339-1.11-2.944-1.648-4.691-0.599c-1.449,0.871-1.761,2.271-1.821,3.793
			c-1.19-0.709-2.421-0.005-2.518,1.623C240.635,91.87,240.717,91.978,240.831,92.03z"></path>
            <g>
                <path style="fill:#82B7BC;"
                    d="M328.397,412.74c-0.005-0.143-0.052-0.257-0.113-0.354c-0.103-0.209-0.299-0.368-0.605-0.363
				c-9.308,0.148-18.612,0.302-27.922,0.451c-0.378,0.006-0.732,0.32-0.716,0.717c0.224,5.382-0.234,10.926,0.655,16.257
				c0.829,4.969,6.278,5.35,10.488,5.594c5.397,0.313,13.102,0.504,16.204-2.352C329.978,429.38,328.583,418.012,328.397,412.74z"></path>
                <g>
                    <path style="fill:#A3D0D8;"
                        d="M303.894,423.253c-4.224,0-5.189-3.978-5.2-4.021c-0.054-0.231,0.092-0.461,0.322-0.515
					c0.235-0.049,0.464,0.092,0.518,0.322c0.038,0.164,1.018,4.067,5.6,3.235c3.049-0.554,3.278-6.938,3.28-7.001
					c0.009-0.215,0.166-0.39,0.378-0.415c0.202-0.032,0.408,0.104,0.466,0.308c0.08,0.277,0.164,0.638,0.258,1.054
					c0.353,1.546,0.888,3.885,2.003,4.861c1.397,1.222,4.608,1.367,6.261,0.635c1.717-0.672,2.55-3.077,2.486-5.259
					c-0.045-0.313-0.074-0.637-0.088-0.965c-0.007-0.227,0.163-0.423,0.391-0.443c0.217-0.021,0.431,0.136,0.467,0.36
					c0.049,0.315,0.077,0.637,0.091,0.965c0.356,2.34,1.733,4.295,3.476,4.818c1.387,0.414,2.733-0.177,3.787-1.662
					c0.139-0.194,0.405-0.238,0.602-0.101c0.191,0.138,0.237,0.406,0.099,0.6c-1.27,1.783-2.995,2.509-4.734,1.984
					c-1.482-0.442-2.714-1.678-3.45-3.32c-0.399,1.727-1.331,3.245-2.794,3.817c-1.912,0.849-5.466,0.697-7.158-0.782
					c-1.007-0.881-1.58-2.532-1.962-4.002c-0.404,2.14-1.375,4.972-3.703,5.395C304.787,423.212,304.323,423.253,303.894,423.253z"></path>
                </g>
                <g>
                    <path style="fill:#709DA0;" d="M313.076,410.136c-2.955-0.003-12.999,0.132-14.105,2.396
					c-1.472,3.184,14.868,2.934,18.025,2.829C331.956,414.87,333.74,409.386,313.076,410.136z"></path>
                </g>
                <g>
                    <path style="fill:#A3D0D8;" d="M313.076,409.564c-1.711,0.002-16.046-0.247-14.741,3.633c0.638,1.895,3.674,2.064,5.283,2.29
					c3.548,0.494,7.173,0.515,10.75,0.497c3.169-0.016,6.332-0.182,9.458-0.741c1.396-0.249,4.429-0.73,5.049-2.356
					C330.471,408.689,314.209,409.528,313.076,409.564c-0.739,0.022-0.741,1.169,0,1.146c3.266-0.099,6.523-0.104,9.779,0.209
					c0.573,0.057,6.262,0.815,4.396,2.034c-3.442,2.245-8.936,1.847-12.883,1.885c-4.398,0.04-9.097,0.12-13.374-1.023
					c-2.065-0.554-0.668-1.749,0.703-2.146c1.438-0.417,2.977-0.547,4.462-0.689c2.293-0.223,4.612-0.265,6.917-0.27
					C313.816,410.709,313.816,409.563,313.076,409.564z"></path>
                </g>
                <g>
                    <g>
                        <path style="fill:#82B7BC;" d="M328.597,378.463c-0.188,11.308-0.593,22.618-0.743,33.923c-0.008,0.554,0.854,0.554,0.859,0
						c0.152-11.305,0.557-22.615,0.742-33.923C329.466,377.909,328.604,377.909,328.597,378.463L328.597,378.463z"></path>
                    </g>
                    <g>
                        <path style="fill:#82B7BC;" d="M296.843,378.27c0.347,11.45,0.498,22.859,1.698,34.263c0.058,0.544,0.919,0.548,0.86,0
						c-1.2-11.403-1.353-22.813-1.699-34.263C297.685,377.716,296.824,377.715,296.843,378.27L296.843,378.27z"></path>
                    </g>
                    <g>
                        <path style="fill:#82B7BC;" d="M312.336,380.185c0.965,11.543-0.244,23.122,0.764,34.659c0.05,0.548,0.909,0.554,0.863,0
						c-1.009-11.537,0.197-23.116-0.765-34.659C313.152,379.637,312.291,379.632,312.336,380.185L312.336,380.185z">
                        </path>
                    </g>
                </g>
                <path style="fill:#A3D0D8;" d="M372.886,279.951c-3.606-9.148-10.257-18.263-20.667-20.143c-0.079-0.013-0.152-0.015-0.225-0.019
				c-0.059-0.01-0.108-0.027-0.169-0.033c-7.772-0.789-12.295,6.956-15.025,12.891c-4.932,10.721-7.095,22.725-9.027,34.251
				c-3.797,22.67-7.72,47.509-1.073,69.979c0.363,1.237,2.021,1.402,2.707,0.347c7.109-10.927,21.78-14.672,31.157-23.392
				c9.8-9.111,14.779-22.429,16.373-35.315C378.563,305.378,377.787,292.376,372.886,279.951z"></path>
                <path style="fill:#BCE0E8;" d="M295.504,316.621c-3.452-18.651-11.598-37.296-21.001-53.825
				c-0.328-0.574-0.857-0.761-1.365-0.693c-0.212,0.006-0.434,0.057-0.66,0.175c-9.45,4.86-14.531,14.175-17.713,23.788
				c-3.417,10.319-5.206,22.898-3.618,33.701c2.053,13.982,9.954,26.325,20.356,35.881c8.524,7.836,19.134,12.914,26.745,21.871
				c0.85,0.999,2.538,0.159,2.526-1.025C300.576,356.522,299.141,336.278,295.504,316.621z"></path>
                <path style="fill:#BCE0E8;"
                    d="M340.455,248.997c-8.35-4.556-18.106-5.327-27.335-3.503c-0.571,0.111-0.891,0.453-1.014,0.857
				c-5.578,7.96-6.396,19.092-7.215,28.397c-1.287,14.64-0.939,29.432-0.288,44.093c0.877,19.765,2.539,39.566,5.058,59.198
				c0.1,0.783,0.597,1.448,1.48,1.448c5.662,0,11.324,0,16.985,0c0.505,0,1.036-0.271,1.279-0.717
				c15.683-28.8,20.074-63.442,22.698-95.554c0.6-7.315,1.08-14.668,1.201-22.01C353.387,256.36,343.989,250.926,340.455,248.997z"></path>
                <path style="fill:#A3D0D8;"
                    d="M316.932,251.175c-2.659-15.326-29.722-3.099-36.883,2.141c-6.62,4.843-8.415,9.425-8.84,16.824
				c-0.705,12.325-0.045,24.728,1.524,36.966c2.152,16.813,6.414,33.541,13.248,49.131c2.082,4.748,4.361,9.388,6.855,13.943
				c1.129,2.056,3.625,8.604,6.063,9.258c3.586,0.967,8.518,0.051,12.242,0.051c0.742,0,1.192-0.436,1.358-0.973
				c0.06-0.143,0.107-0.298,0.123-0.476c2.336-27.95,4.188-55.973,5.148-84.002C318.252,279.978,319.353,265.127,316.932,251.175z"></path>
                <g>
                    <path style="fill:#82B7BC;" d="M296.456,380.135c10.96,2.042,22.526,1.908,33.477,0c3.134-0.543,1.803-4.736-1.315-4.193
					c-10.025,1.744-20.803,1.867-30.845,0C294.655,375.36,293.331,379.556,296.456,380.135L296.456,380.135z"></path>
                </g>
            </g>
            <g>
                <path style="fill:#8CA8AF;"
                    d="M195.323,107.502c-0.002-0.062-0.021-0.111-0.048-0.153c-0.046-0.091-0.131-0.159-0.263-0.158
				c-4.032,0.065-8.064,0.13-12.098,0.196c-0.163,0.003-0.316,0.139-0.311,0.311c0.099,2.331-0.101,4.732,0.285,7.043
				c0.359,2.153,2.72,2.317,4.543,2.423c2.338,0.135,5.676,0.219,7.02-1.02C196.008,114.71,195.405,109.785,195.323,107.502z"></path>
                <g>
                    <path style="fill:#A9C0C9;" d="M184.708,112.056c-1.832,0-2.249-1.723-2.254-1.742c-0.023-0.1,0.039-0.199,0.14-0.223
					c0.103-0.021,0.199,0.04,0.222,0.139c0.02,0.072,0.443,1.763,2.427,1.402c1.322-0.239,1.422-3.005,1.423-3.033
					c0.003-0.093,0.071-0.169,0.163-0.179c0.088-0.013,0.177,0.044,0.203,0.133c0.033,0.119,0.07,0.277,0.11,0.457
					c0.151,0.67,0.384,1.684,0.867,2.107c0.606,0.529,1.998,0.592,2.712,0.274c0.744-0.291,1.105-1.333,1.078-2.278
					c-0.02-0.137-0.03-0.277-0.039-0.418c-0.003-0.099,0.072-0.184,0.171-0.192c0.094-0.009,0.188,0.059,0.202,0.157
					c0.02,0.136,0.033,0.275,0.037,0.417c0.156,1.015,0.752,1.86,1.509,2.086c0.6,0.181,1.183-0.075,1.64-0.719
					c0.061-0.083,0.176-0.103,0.262-0.043c0.082,0.059,0.102,0.176,0.042,0.26c-0.55,0.772-1.298,1.086-2.05,0.86
					c-0.644-0.192-1.177-0.728-1.495-1.439c-0.174,0.749-0.578,1.406-1.212,1.654c-0.828,0.368-2.368,0.302-3.102-0.339
					c-0.436-0.381-0.683-1.097-0.848-1.734c-0.178,0.926-0.598,2.153-1.605,2.337C185.093,112.039,184.892,112.056,184.708,112.056z
					"></path>
                </g>
                <g>
                    <path style="fill:#6B7D7E;" d="M188.685,106.374c-1.282-0.001-5.632,0.057-6.11,1.038c-0.639,1.379,6.442,1.271,7.81,1.225
					C196.865,108.425,197.636,106.047,188.685,106.374z"></path>
                </g>
                <g>
                    <path style="fill:#A9C0C9;" d="M188.685,106.126c-0.742,0.001-6.952-0.107-6.387,1.574c0.277,0.822,1.592,0.894,2.289,0.991
					c1.538,0.215,3.109,0.224,4.657,0.216c1.372-0.007,2.744-0.08,4.098-0.322c0.606-0.108,1.918-0.317,2.187-1.02
					C196.22,105.746,189.177,106.11,188.685,106.126c-0.319,0.01-0.322,0.507,0,0.497c1.414-0.043,2.825-0.046,4.236,0.089
					c0.248,0.025,2.713,0.354,1.905,0.882c-1.491,0.973-3.873,0.799-5.582,0.816c-1.906,0.018-3.94,0.053-5.794-0.443
					c-0.895-0.241-0.289-0.758,0.305-0.93c0.624-0.181,1.29-0.237,1.933-0.298c0.994-0.096,1.998-0.115,2.997-0.116
					C189.006,106.622,189.006,106.124,188.685,106.126z"></path>
                </g>
                <g>
                    <g>
                        <path style="fill:#8CA8AF;" d="M195.409,92.652c-0.082,4.898-0.257,9.799-0.322,14.696c-0.004,0.24,0.369,0.24,0.371,0
						c0.068-4.897,0.241-9.798,0.325-14.696C195.786,92.412,195.412,92.412,195.409,92.652L195.409,92.652z"></path>
                    </g>
                    <g>
                        <path style="fill:#8CA8AF;" d="M181.651,92.568c0.151,4.96,0.217,9.903,0.737,14.843c0.024,0.236,0.396,0.237,0.372,0
						c-0.52-4.94-0.583-9.883-0.735-14.843C182.017,92.329,181.644,92.329,181.651,92.568L181.651,92.568z"></path>
                    </g>
                    <g>
                        <path style="fill:#8CA8AF;" d="M188.366,93.398c0.415,5-0.106,10.018,0.33,15.016c0.023,0.236,0.394,0.239,0.374,0
						c-0.437-4.999,0.086-10.016-0.331-15.016C188.718,93.16,188.347,93.157,188.366,93.398L188.366,93.398z"></path>
                    </g>
                </g>
                <path style="fill:#A9C0C9;" d="M214.597,49.974c-1.563-3.964-4.443-7.913-8.955-8.726c-0.033-0.005-0.064-0.006-0.097-0.007
				c-0.025-0.005-0.048-0.013-0.073-0.015c-3.366-0.342-5.326,3.013-6.51,5.585c-2.134,4.645-3.073,9.845-3.911,14.839
				c-1.645,9.82-3.344,20.582-0.464,30.317c0.157,0.534,0.875,0.606,1.172,0.149c3.081-4.734,9.436-6.356,13.499-10.134
				c4.246-3.947,6.403-9.717,7.095-15.3C217.054,60.989,216.719,55.356,214.597,49.974z"></path>
                <path style="fill:#C7E0E8;" d="M181.072,65.86c-1.495-8.081-5.024-16.158-9.099-23.318c-0.141-0.249-0.371-0.331-0.59-0.301
				c-0.093,0.002-0.189,0.024-0.286,0.075c-4.095,2.106-6.296,6.142-7.675,10.306c-1.48,4.471-2.254,9.92-1.566,14.6
				c0.889,6.057,4.312,11.404,8.82,15.544c3.69,3.395,8.287,5.595,11.584,9.476c0.368,0.434,1.102,0.07,1.097-0.445
				C183.269,83.147,182.646,74.377,181.072,65.86z"></path>
                <path style="fill:#C7E0E8;"
                    d="M200.547,36.563c-3.618-1.974-7.845-2.308-11.843-1.518c-0.248,0.048-0.388,0.197-0.44,0.372
				c-2.417,3.448-2.77,8.271-3.125,12.302c-0.557,6.342-0.406,12.75-0.124,19.103c0.379,8.563,1.099,17.141,2.191,25.646
				c0.043,0.339,0.258,0.628,0.642,0.628c2.453,0,4.905,0,7.358,0c0.219,0,0.448-0.118,0.554-0.311
				c6.794-12.478,8.697-27.485,9.834-41.397c0.26-3.17,0.468-6.355,0.52-9.535C206.148,39.753,202.077,37.398,200.547,36.563z"></path>
                <path style="fill:#A9C0C9;"
                    d="M190.356,37.506c-1.152-6.639-12.877-1.341-15.979,0.928c-2.868,2.098-3.647,4.083-3.829,7.29
				c-0.306,5.339-0.022,10.713,0.659,16.014c0.933,7.283,2.779,14.531,5.74,21.284c0.901,2.058,1.888,4.067,2.97,6.041
				c0.487,0.892,1.569,3.727,2.624,4.011c1.557,0.42,3.692,0.023,5.306,0.023c0.321,0,0.516-0.19,0.588-0.422
				c0.026-0.062,0.049-0.13,0.054-0.206c1.012-12.109,1.813-24.249,2.23-36.392C190.927,49.985,191.404,43.551,190.356,37.506z"></path>
                <g>
                    <path style="fill:#8CA8AF;" d="M181.485,93.377c4.748,0.885,9.758,0.827,14.502,0c1.358-0.235,0.782-2.052-0.568-1.817
					c-4.344,0.755-9.011,0.809-13.363,0C180.706,91.308,180.131,93.126,181.485,93.377L181.485,93.377z"></path>
                </g>
            </g>
            <rect x="159.581" y="215.014" style="fill:none;" width="207.839" height="26.718"></rect>
            <text transform="matrix(1 0 0 1 182.0571 227.0018)"
                style="fill: rgb(122, 191, 166); font-family: Rubik-Medium; font-size: 16.8848px; letter-spacing: 2px;">PAGE
                NOT FOUND</text>
            <rect x="134.637" y="137.589" style="fill:none;" width="257.726" height="69.619"></rect>
            <text transform="matrix(1 0 0 1 190.1304 205.286)"
                style="fill: rgb(122, 191, 166); font-family: Rubik-Medium; font-size: 95.3496px; white-space: pre;">404</text>
            <rect x="216.373" y="106.599" style="fill:none;" width="94.255" height="21.35"></rect>
            <text transform="matrix(1 0 0 1 228.1968 125.6385)"
                style="fill: rgb(169, 192, 201); font-family: Rubik-Medium; font-size: 26.8171px; letter-spacing: 1px; white-space: pre;">Oops!</text>
        </g>
    </g>
</svg>