<?xml version="1.0" encoding="utf-8"?>
<!-- Uploaded to: SVG Repo, www.svgrepo.com, Generator: SVG Repo Mixer Tools -->
<svg width="800px" height="800px" viewBox="0 0 24 24" xmlns="http://www.w3.org/2000/svg">
    <path fill-rule="evenodd" clip-rule="evenodd"
        d="M8.70711 4.70711C9.09763 4.31658 9.09763 3.68342 8.70711 3.29289C8.31658 2.90237 7.68342 2.90237 7.29289 3.29289L3.29289 7.29289C2.90237 7.68342 2.90237 8.31658 3.29289 8.70711L7.29289 12.7071C7.68342 13.0976 8.31658 13.0976 8.70711 12.7071C9.09763 12.3166 9.09763 11.6834 8.70711 11.2929L6.41421 9H16C16.5523 9 17 8.55228 17 8C17 7.44772 16.5523 7 16 7H6.41421L8.70711 4.70711ZM20.7071 15.2929L16.7071 11.2929C16.3166 10.9024 15.6834 10.9024 15.2929 11.2929C14.9024 11.6834 14.9024 12.3166 15.2929 12.7071L17.5858 15H8C7.44772 15 7 15.4477 7 16C7 16.5523 7.44772 17 8 17H17.5858L15.2929 19.2929C14.9024 19.6834 14.9024 20.3166 15.2929 20.7071C15.6834 21.0976 16.3166 21.0976 16.7071 20.7071L20.7071 16.7071C21.0976 16.3166 21.0976 15.6834 20.7071 15.2929Z"
        fill="currentColor" />
</svg>